<?xml version="1.0" encoding="UTF-8"?>
<svg width="42px" height="42px" viewBox="0 0 42 42" version="1.1" xmlns="http://www.w3.org/2000/svg" xmlns:xlink="http://www.w3.org/1999/xlink">
    <!-- Generator: sketchtool 57.1 (101010) - https://sketch.com -->
    <title>B705EE5E-10A2-41F3-BB84-E0586F16D9BF</title>
    <desc>Created with sketchtool.</desc>
    <g id="Page-1" stroke="none" stroke-width="1" fill="none" fill-rule="evenodd">
        <g id="transcorp-copy" transform="translate(-700.000000, -516.000000)">
            <g id="Group-11" transform="translate(509.000000, 319.000000)">
                <g id="ic_play_circle_outline" transform="translate(187.000000, 193.000000)">
                    <g id="Icon-24px">
                        <polygon id="Shape" points="0 0 50 0 50 50 0 50"></polygon>
                        <path d="M20.8333333,34.375 L33.3333333,25 L20.8333333,15.625 L20.8333333,34.375 L20.8333333,34.375 Z M25,4.16666667 C13.5,4.16666667 4.16666667,13.5 4.16666667,25 C4.16666667,36.5 13.5,45.8333333 25,45.8333333 C36.5,45.8333333 45.8333333,36.5 45.8333333,25 C45.8333333,13.5 36.5,4.16666667 25,4.16666667 L25,4.16666667 Z M25,41.6666667 C15.8125,41.6666667 8.33333333,34.1875 8.33333333,25 C8.33333333,15.8125 15.8125,8.33333333 25,8.33333333 C34.1875,8.33333333 41.6666667,15.8125 41.6666667,25 C41.6666667,34.1875 34.1875,41.6666667 25,41.6666667 L25,41.6666667 Z" id="Shape" fill="#FFFFFF"></path>
                    </g>
                </g>
            </g>
        </g>
    </g>
</svg>